# xmcd
#
# Track frame offsets:
#	150
#	20389
#	39797
#	57426
#	72743
#	90511
#	108612
#	127377
#	152386
#	172580
#	192409
#	210371
#
# Disc length: 3005 seconds
#
# Revision: 0
# Processed by: cddbd v1.5.1PL0 Copyright (c) Steve Scherf et al.
# Submitted via: dBpowerAMP V4.0
#
DISCID=9c0bbb0c
DTITLE=Simply Red - The Essentials
DYEAR=2003
DGENRE=Rock/Pop
TTITLE0=Holding Back The Years
TTITLE1=Maybe Someday
TTITLE2=It's Only Love
TTITLE3=If You Don't Know Me By Now
TTITLE4=You've Got It
TTITLE5=Something Got Me Started
TTITLE6=Stars
TTITLE7=Fairground
TTITLE8=Money's Too Tight (To Mention)
TTITLE9=The Right Thing
TTITLE10=A New Flame
TTITLE11=Ev'ry Time We Say Goodbye
EXTD=
EXTT0=
EXTT1=
EXTT2=
EXTT3=
EXTT4=
EXTT5=
EXTT6=
EXTT7=
EXTT8=
EXTT9=
EXTT10=
EXTT11=
PLAYORDER=
